<?xml version="1.0" encoding="UTF-8"?>
<svg width="40px" height="33px" viewBox="0 0 40 33" version="1.1" xmlns="http://www.w3.org/2000/svg" xmlns:xlink="http://www.w3.org/1999/xlink">
    <!-- Generator: Sketch 48.1 (47250) - http://www.bohemiancoding.com/sketch -->
    <title>FWallLogo</title>
    <desc>Created with Sketch.</desc>
    <defs></defs>
    <g id="Desktop" stroke="none" stroke-width="1" fill="none" fill-rule="evenodd" transform="translate(-95.000000, -9.000000)">
        <g id="FWallLogo" transform="translate(95.000000, 9.000000)" fill="#FFFFFF" fill-rule="nonzero">
            <path d="M27.7117188,23.3296875 L20.984375,23.3296875 L18.515625,23.3296875 L11.7882813,23.3296875 C10.9859375,23.3296875 10.3070313,24.0085938 10.3070313,24.8109375 L10.3070313,31.4765625 C10.3070313,32.2789063 10.9859375,32.9578125 11.7882813,32.9578125 L27.7117188,32.9578125 C28.5140625,32.9578125 29.1929688,32.2789063 29.1929688,31.4765625 L29.1929688,24.7492188 C29.13125,23.946875 28.5140625,23.3296875 27.7117188,23.3296875 Z" id="Shape" opacity="0.598562047"></path>
            <path d="M38.01875,23.3296875 L32.4640625,23.3296875 C31.6617188,23.3296875 30.9828125,24.0085938 30.9828125,24.8109375 L30.9828125,31.4765625 C30.9828125,32.2789063 31.6617188,32.9578125 32.4640625,32.9578125 L38.01875,32.9578125 C38.8210938,32.9578125 39.5,32.2789063 39.5,31.4765625 L39.5,24.7492188 C39.5,23.946875 38.8210938,23.3296875 38.01875,23.3296875 Z" id="Shape" opacity="0.598562047"></path>
            <path d="M7.0359375,23.3296875 L1.48125,23.3296875 C0.67890625,23.3296875 0,24.0085938 0,24.8109375 L0,31.4765625 C0,32.2789063 0.67890625,32.9578125 1.48125,32.9578125 L7.0359375,32.9578125 C7.83828125,32.9578125 8.5171875,32.2789063 8.5171875,31.4765625 L8.5171875,24.7492188 C8.5171875,23.946875 7.83828125,23.3296875 7.0359375,23.3296875 Z" id="Shape"></path>
            <path d="M11.7882813,10.0601563 L18.515625,10.0601563 L20.984375,10.0601563 L27.7117188,10.0601563 C28.5140625,10.0601563 29.1929688,9.38125 29.1929688,8.57890625 L29.1929688,1.91328125 C29.1929688,1.1109375 28.5140625,0.43203125 27.7117188,0.43203125 L11.7882813,0.43203125 C10.9859375,0.43203125 10.3070313,1.1109375 10.3070313,1.91328125 L10.3070313,8.57890625 C10.36875,9.38125 10.9859375,10.0601563 11.7882813,10.0601563 Z" id="Shape"></path>
            <path d="M38.01875,0.49375 L32.4640625,0.49375 C31.6617188,0.49375 30.9828125,1.17265625 30.9828125,1.975 L30.9828125,8.640625 C30.9828125,9.44296875 31.6617188,10.121875 32.4640625,10.121875 L38.01875,10.121875 C38.8210938,10.121875 39.5,9.44296875 39.5,8.640625 L39.5,1.91328125 C39.5,1.1109375 38.8210938,0.49375 38.01875,0.49375 Z" id="Shape" opacity="0.598562047"></path>
            <path d="M1.48125,10.0601563 L7.0359375,10.0601563 C7.83828125,10.0601563 8.5171875,9.38125 8.5171875,8.57890625 L8.5171875,1.91328125 C8.5171875,1.1109375 7.83828125,0.43203125 7.0359375,0.43203125 L1.48125,0.43203125 C0.67890625,0.43203125 0,1.1109375 0,1.91328125 L0,8.57890625 C0,9.38125 0.67890625,10.0601563 1.48125,10.0601563 Z" id="Shape"></path>
            <path d="M38.01875,11.9117188 L31.2914063,11.9117188 L28.8226563,11.9117188 L22.1570313,11.9117188 C21.3546875,11.9117188 20.6757812,12.590625 20.6757812,13.3929688 L20.6757812,20.0585938 C20.6757812,20.8609375 21.3546875,21.5398438 22.1570313,21.5398438 L28.884375,21.5398438 L31.353125,21.5398438 L38.0804688,21.5398438 C38.8828125,21.5398438 39.5617188,20.8609375 39.5617188,20.0585938 L39.5617188,13.33125 C39.5,12.5289063 38.8210938,11.9117188 38.01875,11.9117188 Z" id="Shape" opacity="0.598562047"></path>
            <path d="M1.48125,21.478125 L8.20859375,21.478125 L10.6773438,21.478125 L17.4046875,21.478125 C18.2070313,21.478125 18.8859375,20.7992188 18.8859375,19.996875 L18.8859375,13.33125 C18.8859375,12.5289063 18.2070313,11.85 17.4046875,11.85 L10.6773438,11.85 L8.20859375,11.85 L1.48125,11.85 C0.67890625,11.85 0,12.5289063 0,13.33125 L0,19.996875 C0,20.7992188 0.67890625,21.478125 1.48125,21.478125 Z" id="Shape"></path>
        </g>
    </g>
</svg>